<?xml version="1.0" encoding="utf-8"?>
<!-- Generator: Adobe Illustrator 19.2.1, SVG Export Plug-In . SVG Version: 6.00 Build 0)  -->
<svg version="1.1" id="Capa_1" xmlns="http://www.w3.org/2000/svg" xmlns:xlink="http://www.w3.org/1999/xlink" x="0px" y="0px"
	 viewBox="0 0 1509 425.2" style="enable-background:new 0 0 1509 425.2;" xml:space="preserve">
<style type="text/css">
	.st0{fill:#FFFFFF;}
</style>
<rect x="468.9" y="132.7" class="st0" width="60.1" height="173.2"/>
<g>
	<g>
		<path class="st0" d="M563.7,132.7h54.7v31.9h0.6c12-25,36.1-35.9,63.4-35.9c24.7,0,45.1,10.7,54.4,33.2
			c14-23.3,37.1-33.2,61.7-33.2c50,0,61.4,28.3,61.4,75.2v102h-60.1v-93.1c0-19.6-7-34.2-24-34.2c-21.4,0-34,16.9-34,54.2v73.1h-60
			v-93.1c0-19.6-7-34.2-24.1-34.2c-21.3,0-34,16.9-34,54.2v73.1h-60V132.7z"/>
	</g>
	<g>
		<path class="st0" d="M1033.3,182.2c-11-6.7-22-9.6-36.4-9.6c-26,0-46,17.9-46,47.9c0,27.6,23.4,45.6,49.3,45.6
			c13.7,0,27.4-3,37.4-8.3l1.3,44.5c-15,5-33,7.6-48.9,7.6c-57.4,0-101.1-33.2-101.1-90.4c0-57.5,43.7-90.7,101.1-90.7
			c18,0,33.9,3,47.7,9.7L1033.3,182.2z"/>
	</g>
	<g>
		<path class="st0" d="M1397,182.2c-11-6.7-22-9.6-36.4-9.6c-26,0-46,17.9-46,47.9c0,27.6,23.3,45.6,49.4,45.6
			c13.7,0,27.3-3,37.3-8.3l1.3,44.5c-15,5-33,7.6-49.1,7.6c-57.4,0-101-33.2-101-90.4c0-57.5,43.6-90.7,101-90.7
			c18,0,34.1,3,47.7,9.7L1397,182.2z"/>
	</g>
	<g>
		<path class="st0" d="M1066.5,330.2c8,2.6,15.4,3.6,23.7,3.6c14.8,0,26-8.7,30.4-24l-70.4-177.2h64.7l37.4,113h0.6l35.7-113h60.1
			L1185,293.9c-17,43.6-30,85.8-85.1,85.8c-12.7,0-25-1.3-37.3-4L1066.5,330.2z"/>
	</g>
	<g>
		<path class="st0" d="M164,162.5c12-15.2,30.6-25,51.4-25c20.8,0,39.4,9.8,51.4,25l92.1-53.1c-30.6-46.6-83.5-77.5-143.5-77.5
			c-60.1,0-112.9,30.9-143.5,77.5L164,162.5z"/>
	</g>
	<g>
		<path class="st0" d="M205.9,267.3c-31.7-4.5-56-31.7-56-64.5c0-8.5,1.7-16.6,4.7-24.1l-92.1-52.9c-11.8,23.2-18.6,49.3-18.6,77.1
			c0,91.2,71.8,165.5,162.1,170.4V267.3z"/>
	</g>
	<g>
		<path class="st0" d="M368.3,125.8l-92,52.9c3,7.5,4.7,15.6,4.7,24.1c0,32.8-24.4,60-56.1,64.5v105.9
			c90.3-4.9,162.1-79.2,162.1-170.4C386.8,175,380.1,148.9,368.3,125.8"/>
	</g>
	<g>
		<path class="st0" d="M1435.4,144.3c-4.2,4.2-6.4,9.3-6.4,15.3c0,6,2.1,11,6.4,15.3c4.2,4.2,9.3,6.4,15.3,6.4c6,0,11-2.1,15.3-6.4
			c4.2-4.2,6.4-9.3,6.4-15.3c0-6-2.1-11-6.4-15.3c-4.2-4.2-9.3-6.4-15.3-6.4C1444.8,138,1439.7,140.1,1435.4,144.3 M1438.2,172.7
			c-3.3-3.5-5-7.9-5-13.1c0-5.2,1.7-9.6,5-13.1c3.3-3.5,7.5-5.3,12.6-5.3c5,0,9.1,1.8,12.4,5.3c3.3,3.5,5,7.9,5,13.1
			c0,5.2-1.7,9.6-5,13.1c-3.3,3.5-7.5,5.3-12.5,5.3C1445.7,178,1441.6,176.2,1438.2,172.7 M1442.4,172.2h4.1V161l3.5,0l7.1,11.2
			l4.4,0l-7.2-11.2c2,0,3.6-0.7,4.8-1.9c1.2-1.3,1.8-3,1.8-5.1c0-4.8-2.9-7.1-8.7-7.1h-9.7V172.2z M1446.6,150.1h4.9
			c1.5,0,2.8,0.3,3.7,0.9c1,0.6,1.5,1.5,1.5,2.8c0,1.6-0.4,2.6-1.3,3.1c-0.9,0.5-2.2,0.8-3.9,0.8h-4.9V150.1z"/>
	</g>
</g>
</svg>
